<svg id="Layer_1" data-name="Layer 1" xmlns="http://www.w3.org/2000/svg" xmlns:xlink="http://www.w3.org/1999/xlink" viewBox="0 0 1004.02 1004.02"><defs><style>.cls-1{fill:#fff;}.cls-2{fill:#b3b3b3;}.cls-3{fill:url(#linear-gradient);}.cls-4{fill:url(#linear-gradient-2);}.cls-5{fill:url(#linear-gradient-3);}.cls-6{fill:url(#linear-gradient-4);}.cls-7{fill:url(#linear-gradient-5);}.cls-8{fill:url(#linear-gradient-6);}.cls-9{fill:url(#linear-gradient-7);}.cls-10{fill:url(#linear-gradient-8);}.cls-11{fill:url(#linear-gradient-9);}.cls-12{fill:url(#linear-gradient-10);}.cls-13{fill:url(#linear-gradient-11);}.cls-14{fill:url(#linear-gradient-12);}.cls-15{fill:url(#linear-gradient-13);}.cls-16{fill:url(#linear-gradient-14);}.cls-17{fill:url(#linear-gradient-15);}.cls-18{fill:url(#linear-gradient-16);}.cls-19{fill:url(#linear-gradient-17);}.cls-20{fill:url(#linear-gradient-18);}.cls-21{fill:url(#linear-gradient-19);}.cls-22{fill:url(#linear-gradient-20);}.cls-23{fill:url(#linear-gradient-21);}.cls-24{fill:url(#linear-gradient-22);}.cls-25{fill:url(#linear-gradient-23);}.cls-26{fill:url(#linear-gradient-24);}.cls-27{fill:url(#linear-gradient-25);}.cls-28{fill:url(#linear-gradient-26);}.cls-29{fill:url(#linear-gradient-27);}.cls-30{fill:url(#linear-gradient-28);}.cls-31{fill:url(#linear-gradient-29);}.cls-32{fill:url(#linear-gradient-30);}.cls-33{fill:url(#linear-gradient-31);}.cls-34{fill:url(#linear-gradient-32);}.cls-35{fill:url(#linear-gradient-33);}.cls-36{fill:url(#linear-gradient-34);}.cls-37{fill:url(#linear-gradient-35);}.cls-38{fill:url(#linear-gradient-36);}.cls-39{fill:url(#linear-gradient-37);}.cls-40{fill:url(#linear-gradient-38);}</style><linearGradient id="linear-gradient" x1="440.45" y1="465.14" x2="713.61" y2="465.14" gradientUnits="userSpaceOnUse"><stop offset="0" stop-color="#5b5cff"/><stop offset="1" stop-color="#00d4ff"/></linearGradient><linearGradient id="linear-gradient-2" x1="398.76" y1="518.24" x2="660.28" y2="518.24" xlink:href="#linear-gradient"/><linearGradient id="linear-gradient-3" x1="455.82" y1="447.41" x2="794.65" y2="447.41" xlink:href="#linear-gradient"/><linearGradient id="linear-gradient-4" x1="414.55" y1="500.61" x2="679.73" y2="500.61" xlink:href="#linear-gradient"/><linearGradient id="linear-gradient-5" x1="371.23" y1="553.07" x2="626.59" y2="553.07" xlink:href="#linear-gradient"/><linearGradient id="linear-gradient-6" x1="357.54" y1="572.34" x2="609.05" y2="572.34" xlink:href="#linear-gradient"/><linearGradient id="linear-gradient-7" x1="427.8" y1="482.42" x2="694.52" y2="482.42" xlink:href="#linear-gradient"/><linearGradient id="linear-gradient-8" x1="386.5" y1="535.54" x2="641.43" y2="535.54" xlink:href="#linear-gradient"/><linearGradient id="linear-gradient-9" x1="480.7" y1="338.39" x2="599.9" y2="338.39" xlink:href="#linear-gradient"/><linearGradient id="linear-gradient-10" x1="495.66" y1="318.06" x2="611.41" y2="318.06" xlink:href="#linear-gradient"/><linearGradient id="linear-gradient-11" x1="525.25" y1="284.28" x2="636.78" y2="284.28" xlink:href="#linear-gradient"/><linearGradient id="linear-gradient-12" x1="508.95" y1="300.05" x2="623.54" y2="300.05" xlink:href="#linear-gradient"/><linearGradient id="linear-gradient-13" x1="344.64" y1="531.39" x2="479.26" y2="531.39" xlink:href="#linear-gradient"/><linearGradient id="linear-gradient-14" x1="332.66" y1="540.84" x2="451.09" y2="540.84" xlink:href="#linear-gradient"/><linearGradient id="linear-gradient-15" x1="620.96" y1="507.31" x2="748.12" y2="507.31" xlink:href="#linear-gradient"/><linearGradient id="linear-gradient-16" x1="469.06" y1="357.88" x2="586.94" y2="357.88" xlink:href="#linear-gradient"/><linearGradient id="linear-gradient-17" x1="650" y1="500.6" x2="763.97" y2="500.6" xlink:href="#linear-gradient"/><linearGradient id="linear-gradient-18" x1="318.01" y1="548.71" x2="417.94" y2="548.71" xlink:href="#linear-gradient"/><linearGradient id="linear-gradient-19" x1="681.49" y1="493.46" x2="782.61" y2="493.46" xlink:href="#linear-gradient"/><linearGradient id="linear-gradient-20" x1="553.07" y1="270.95" x2="648.29" y2="270.95" xlink:href="#linear-gradient"/><linearGradient id="linear-gradient-21" x1="488.95" y1="677.38" x2="574.92" y2="677.38" xlink:href="#linear-gradient"/><linearGradient id="linear-gradient-22" x1="477.36" y1="695.97" x2="559.35" y2="695.97" xlink:href="#linear-gradient"/><linearGradient id="linear-gradient-23" x1="500.53" y1="661.55" x2="590.42" y2="661.55" xlink:href="#linear-gradient"/><linearGradient id="linear-gradient-24" x1="303.3" y1="559.51" x2="383.14" y2="559.51" xlink:href="#linear-gradient"/><linearGradient id="linear-gradient-25" x1="465.26" y1="714.12" x2="540.67" y2="714.12" xlink:href="#linear-gradient"/><linearGradient id="linear-gradient-26" x1="452.19" y1="732.8" x2="523.47" y2="732.8" xlink:href="#linear-gradient"/><linearGradient id="linear-gradient-27" x1="749.21" y1="477.32" x2="817.33" y2="477.32" xlink:href="#linear-gradient"/><linearGradient id="linear-gradient-28" x1="716.3" y1="484.96" x2="799.58" y2="484.96" xlink:href="#linear-gradient"/><linearGradient id="linear-gradient-29" x1="440.83" y1="752.77" x2="504.46" y2="752.77" xlink:href="#linear-gradient"/><linearGradient id="linear-gradient-30" x1="586.13" y1="261.59" x2="658.08" y2="261.59" xlink:href="#linear-gradient"/><linearGradient id="linear-gradient-31" x1="429.19" y1="770.88" x2="487.55" y2="770.88" xlink:href="#linear-gradient"/><linearGradient id="linear-gradient-32" x1="415.99" y1="789.48" x2="469.98" y2="789.48" xlink:href="#linear-gradient"/><linearGradient id="linear-gradient-33" x1="402.78" y1="810.37" x2="451.32" y2="810.37" xlink:href="#linear-gradient"/><linearGradient id="linear-gradient-34" x1="293.84" y1="569.84" x2="345.02" y2="569.84" xlink:href="#linear-gradient"/><linearGradient id="linear-gradient-35" x1="615.22" y1="252.71" x2="665.87" y2="252.71" xlink:href="#linear-gradient"/><linearGradient id="linear-gradient-36" x1="389.48" y1="831" x2="430.75" y2="831" xlink:href="#linear-gradient"/><linearGradient id="linear-gradient-37" x1="376.03" y1="851.7" x2="411.28" y2="851.7" xlink:href="#linear-gradient"/><linearGradient id="linear-gradient-38" x1="285.67" y1="227.88" x2="468.74" y2="310.69" gradientUnits="userSpaceOnUse"><stop offset="0" stop-color="#ffef5f"/><stop offset="0.5" stop-color="#f2a55a"/><stop offset="1" stop-color="#8b3ad8"/></linearGradient></defs><title>logo</title><circle class="cls-1" cx="502.01" cy="502.01" r="498.26"/><path class="cls-2" d="M511.22,1013.47A502.14,502.14,0,0,1,315.82,48.9,502.14,502.14,0,0,1,706.63,974,498.85,498.85,0,0,1,511.22,1013.47Zm0-996.51c-272.67,0-494.5,221.83-494.5,494.5S238.55,1006,511.22,1006s494.51-221.83,494.51-494.5S783.89,17,511.22,17Z" transform="translate(-9.21 -9.45)"/><path class="cls-3" d="M713.61,578.62c-5.9,6.06-11.9,12-19.09,16.77-4,.69-5.89-2.36-8.11-4.45q-120.57-113.16-241-226.48c-2.54-2.39-6.54-4.5-4.35-9a144.54,144.54,0,0,1,14.74-20.62c6.69,5.78,12.81,12.1,19.24,18.14Q590.77,461.56,706.37,570.32C709.05,572.84,712.48,574.87,713.61,578.62Z" transform="translate(-9.21 -9.45)"/><path class="cls-4" d="M404.13,423.78q114.51,107.78,229.19,215.4c2.22,2.09,4.08,5.13,8.1,4.48,6.63-5.14,13.23-10.29,18.76-16.52.84-5.12-3.79-7.16-6.71-9.91Q539.67,510.07,425.67,403.1c-3.69-3.46-6.86-7.44-11.12-10.37a147.39,147.39,0,0,0-14.77,20.67C396.73,418.51,401.21,421,404.13,423.78Z" transform="translate(-9.21 -9.45)"/><path class="cls-5" d="M732.85,561.17c-.9-3.85-4.31-5.9-7-8.42q-47.82-45.06-95.72-90.07c-2-1.84-4.75-3.32-5.16-6.79a269.15,269.15,0,0,1,27.7,0c9.76.21,19.55.23,29.32,0q17.21.46,34.41,0,16.7.42,33.39.05c11.4.37,22.81.21,34.22.13,3.73,0,7.73.43,10.62-2.7-5.94-1.72-12-.74-18-.75q-88-.12-176-.05c-16.49,0-26.12-7.39-27.78-20.78-.7-5.7,2-10.54,4-15.59-.74-2.95-3.07-4.85-5.21-6.86Q525.12,365.67,478.56,322c-2.7-2.53-5.22-5.48-9.5-5.76a111.25,111.25,0,0,0-13.24,18.59c.25,4.14,3.8,6.16,6.47,8.67Q584.15,458.08,706.12,572.61c2.32,2.17,5,4,7.49,6A137.06,137.06,0,0,0,732.85,561.17Z" transform="translate(-9.21 -9.45)"/><path class="cls-6" d="M679.73,609.42c-.55-3.08-3.15-4.8-5.26-6.78Q555.94,491.18,437.33,379.77c-2.7-2.54-5.2-5.5-9.53-5.68a123,123,0,0,0-13.25,18.64c.21,4.18,3.92,6.09,6.56,8.58q116,109.15,232.11,218.24c2.51,2.36,5.52,4.35,7,7.59A149.78,149.78,0,0,0,679.73,609.42Z" transform="translate(-9.21 -9.45)"/><path class="cls-7" d="M620.79,650.33q-112-105.32-224-210.57c-3.1-2.91-6-6.1-10.25-7.7-5.54,6.89-11.05,13.79-15.27,21.51,1.07,3.78,4.48,5.84,7.16,8.36Q487.31,564.4,596.3,666.77c1.76,1.65,3.49,3.33,5.33,4.9,2.14,1.82,4.38,3.27,7.42,1.83,6.18-5,12.41-9.85,17.54-15.83C626,654.31,623.09,652.48,620.79,650.33Z" transform="translate(-9.21 -9.45)"/><path class="cls-8" d="M358.13,472c-2.28,5.31,2.58,7.48,5.44,10.19q52.13,49.26,104.52,98.27c3.69,3.46,6.71,7.57,11.17,10.28,21.53,1.41,29.91,9.34,29.57,28,2.92,3.83,7,6.59,10.48,9.89q30.36,28.74,61,57.25c2.67,2.48,4.83,6.85,10.14,4.61a156.58,156.58,0,0,0,18.63-17c-4.43-.2-6.55-3.58-9.21-6.08Q489.23,563.56,378.66,459.65c-2.32-2.18-5-4.06-7.43-6.08A104,104,0,0,0,358.13,472Z" transform="translate(-9.21 -9.45)"/><path class="cls-9" d="M694.52,595.39a13.56,13.56,0,0,1-2-1.33Q568.6,477.68,444.72,361.26c-1.76-1.65-3.66-3.22-3.64-5.85-4.9,5.93-9.62,12-13.28,18.68,4,3.53,8.11,7,12,10.61Q556.1,493.94,672.37,603.21c2.33,2.19,4.9,4.15,7.36,6.21C685.1,605.15,690.71,601.11,694.52,595.39Z" transform="translate(-9.21 -9.45)"/><path class="cls-10" d="M641.43,643.66a25.21,25.21,0,0,1-2.61-1.89l-235.27-221c-2.19-2.06-4.36-4-3.77-7.32a117,117,0,0,0-13.28,18.66c1.51,4.18,5.82,6,8.83,8.81Q507.18,546.26,619.27,651.44c2.33,2.18,4.88,4.16,7.32,6.23C632,653.45,637.53,649.31,641.43,643.66Z" transform="translate(-9.21 -9.45)"/><path class="cls-11" d="M484.31,306q46.63,44,93.44,87.77c2.44,2.28,4.92,5.12,9.19,3.83,4.48-7.17,9.67-14,13-21.79a191.41,191.41,0,0,1-15.07-13.19q-44.57-41.89-89.17-83.77a136.74,136.74,0,0,0-14.74,20.63C480,302.62,482.46,304.26,484.31,306Z" transform="translate(-9.21 -9.45)"/><path class="cls-12" d="M611.41,355.55a12,12,0,0,0-2.47-3.08c-31.43-29.34-62.66-58.87-94-88.26-1.74-1.62-3.32-3.5-6-4a102.4,102.4,0,0,0-13.29,18.6c.07,3.23,2.61,5,4.73,7l91.19,85.71c2.33,2.19,4.43,4.75,8.32,4.25Z" transform="translate(-9.21 -9.45)"/><path class="cls-13" d="M618.66,294.66c-21.58-20.64-44.19-40.33-64.88-61.8-10.49,1.65-20,5.3-28.32,11.69-1.13,4.17,2.56,5.93,4.9,8.15q28.14,26.69,56.47,53.16c9.33,8.76,18.55,17.62,28,26.21,2.28,2.06,4.73,6,8.67,1.71a150.43,150.43,0,0,0,13.24-23.38C629.71,306.2,624.42,300.17,618.66,294.66Z" transform="translate(-9.21 -9.45)"/><path class="cls-14" d="M509,260.25a23.66,23.66,0,0,0,2.38,3.13q47.3,44.52,94.63,89c1.55,1.45,3,3.13,5.45,3.19l12.13-21.77c-4.36,2.17-5.87-1.67-8-3.62q-42.52-39.77-84.86-79.7c-1.92-1.81-3.51-3.94-5.26-5.91A44.57,44.57,0,0,0,509,260.25Z" transform="translate(-9.21 -9.45)"/><path class="cls-15" d="M344.64,490.92a3.9,3.9,0,0,0,1.18,2c32.6,28.76,63.36,59.27,95.28,88.68,3.32,3.06,5.56,7.16,10,9.15h28.17c-1.49-3.74-4.37-6.48-7.3-9.24q-54-50.67-107.93-101.44c-2.47-2.32-5.76-4.19-5.9-8.06A110.66,110.66,0,0,0,344.64,490.92Z" transform="translate(-9.21 -9.45)"/><path class="cls-16" d="M333.41,506.65C331.33,510,334,512,336,514c27.26,25.64,54.3,51.49,81.9,76.8h33.15c-3.06-5-7.11-9.09-11.41-13.11q-42.65-39.92-85.12-80c-2.95-2.77-6-5.35-9.92-6.74A84.15,84.15,0,0,0,333.41,506.65Z" transform="translate(-9.21 -9.45)"/><path class="cls-17" d="M748.12,547.29c-.73-3-3.32-4.7-5.43-6.7q-14.27-13.53-28.67-27c-21.38-19.87-42.2-40.27-64-59.73-7.43-.06-14.86-.24-22.29-.14-2.28,0-5.65-1.31-6.61,1.44-.85,2.43,2.3,3.83,4,5.4q49.29,46.44,98.68,92.76c2.9,2.73,6.06,5.21,9.1,7.81A102.35,102.35,0,0,0,748.12,547.29Z" transform="translate(-9.21 -9.45)"/><path class="cls-18" d="M469.06,316.2q29.57,27.48,59.12,55,24.32,22.57,48.68,45.11c3.8-6,8.13-11.77,10.08-18.67-4-1.42-6.91-4.15-9.85-6.92q-37.46-35.28-75-70.5c-7.19-6.79-14.15-13.79-21.22-20.7A91.9,91.9,0,0,0,469.06,316.2Z" transform="translate(-9.21 -9.45)"/><path class="cls-19" d="M764,533c-.14-2-1.46-3.33-2.82-4.61-26.55-24.82-52.64-50.09-79.66-74.49H650c.08,3.29,2.92,4.85,5,6.8q43.39,40.88,86.88,81.64c1.92,1.81,4.16,3.31,6.25,4.95Z" transform="translate(-9.21 -9.45)"/><path class="cls-20" d="M318,528.26a9.6,9.6,0,0,0,3.13,4.48c20.69,19.32,41,39,62,58h34.8c-.07-3.61-3.2-5.29-5.46-7.42q-36.76-34.67-73.6-69.27c-2.26-2.13-5.4-3.81-5.47-7.42A161.66,161.66,0,0,0,318,528.26Z" transform="translate(-9.21 -9.45)"/><path class="cls-21" d="M782.61,516c-21.92-20.87-43.78-41.8-66.31-62.09H681.49a5.69,5.69,0,0,0,2.08,4.08q40.21,37.5,80.4,75A140.13,140.13,0,0,0,782.61,516Z" transform="translate(-9.21 -9.45)"/><path class="cls-22" d="M648.29,290.14c-20.69-16.91-39-36.07-60-55.13,11.24-1,20.46-.57,29.66-.3a59.89,59.89,0,0,0,9.84.13c6.39-.51,13.22,1.84,19.07-2.43-8.62-2.64-17.5-1.23-26.21-1.08-22.3.4-44.69-1.89-66.91,1.53-2,2.94.8,4.19,2.41,5.71Q593,273.28,630,307.91c1.85,1.74,3.4,4.43,6.82,2.49A119.48,119.48,0,0,0,648.29,290.14Z" transform="translate(-9.21 -9.45)"/><path class="cls-23" d="M570.49,698.05q-30.53-28.72-61.1-57.39c-2.5-2.34-4.93-4.93-8.86-5.17A112.27,112.27,0,0,0,489,656.08a5.8,5.8,0,0,0,1.4,2.77c20.29,19.58,41,38.79,61.62,58,2,1.9,4.37,3.2,7.38,1.79,5.4-4.56,11.39-8.56,15.57-14.29C574.53,701.6,572.42,699.86,570.49,698.05Z" transform="translate(-9.21 -9.45)"/><path class="cls-24" d="M477.56,676.35c-1,3.47,1.9,5.13,3.9,7q25.76,24.39,51.71,48.59c2,1.88,3.78,4.65,7.5,3.68a160.3,160.3,0,0,0,18.68-17c-7.54-1.79-11.09-8.17-16.17-12.69C524.79,689.65,508,671.82,489,656.08A118.26,118.26,0,0,0,477.56,676.35Z" transform="translate(-9.21 -9.45)"/><path class="cls-25" d="M590.42,690.48c-3.84-.06-5.67-3-7.95-5.11q-32.87-30.76-65.65-61.61c-2.28-2.14-4.15-5-8-5l-8.3,16.76c5.32,4.8,10.71,9.54,16,14.41q29.25,27.21,58.43,54.48C580.15,699.81,586.2,696.05,590.42,690.48Z" transform="translate(-9.21 -9.45)"/><path class="cls-26" d="M303.54,548.63c-1,3.15,1.52,4.77,3.37,6.51,12.68,11.89,25.1,24,38.11,35.62h38.12c0-3.29-2.77-4.89-4.84-6.85-8.48-8-16.9-16.15-25.57-24-11.61-10.52-22.09-22.12-34.72-31.65A145.56,145.56,0,0,0,303.54,548.63Z" transform="translate(-9.21 -9.45)"/><path class="cls-27" d="M466.05,696.79c-2.18,3.38.63,5.35,2.62,7.25q23.74,22.61,47.81,44.9c1.8,1.66,3.69,4.21,7,2.23,5.77-5.13,12.41-9.42,17.2-15.52Q508,707,477.56,676.35A125.13,125.13,0,0,0,466.05,696.79Z" transform="translate(-9.21 -9.45)"/><path class="cls-28" d="M452.19,721.38a7,7,0,0,0,1.5,2.74c14.78,14.32,29.89,28.34,45,42.36,1.53,1.41,3.2,3,5.78,2,6.66-5.45,13.34-10.89,19-17.31-1.41-.71-3.1-1.16-4.19-2.18q-25.41-23.7-50.68-47.54c-1.39-1.31-2.6-2.67-2.55-4.66C460.61,704.58,456.32,712.94,452.19,721.38Z" transform="translate(-9.21 -9.45)"/><path class="cls-29" d="M753.65,462.55Q772.18,480.28,791,497.7c2.31,2.15,4.66,4.7,8.56,2.88,4-3.54,8.35-6.78,11.87-10.7,6.18-6.89,7.67-14.95,3.62-23.2-3.93-8-10.3-13.35-20.42-13.24l-45.13.47C748.22,457.92,751.23,460.23,753.65,462.55Z" transform="translate(-9.21 -9.45)"/><path class="cls-30" d="M716.3,453.92c0,2,1.25,3.31,2.63,4.61Q748,485.83,777,513.14c1.58,1.48,3.14,2.91,5.58,2.87a127,127,0,0,0,17-15.43c-3.79-.08-5.73-2.84-8-5q-15.87-14.83-31.64-29.74c-3.86-3.66-8.38-6.84-10.38-11.94Z" transform="translate(-9.21 -9.45)"/><path class="cls-31" d="M440.83,741.73a7.18,7.18,0,0,0,1.95,3.35q19.34,18.52,39,36.69c1.52,1.41,3.15,3,5.73,2.13a125.8,125.8,0,0,0,16.91-15.42c-5.88-3.51-10-8.8-15-13.19-12.63-11.11-23.77-23.65-37.27-33.91A116.09,116.09,0,0,0,440.83,741.73Z" transform="translate(-9.21 -9.45)"/><path class="cls-32" d="M658.08,273q-21-20.64-42.85-40.39c-7.7,0-15.4-.14-23.1-.05-2,0-5-1.07-5.85,1.4-.82,2.25,1.87,3.48,3.35,4.87q25.89,24.45,51.9,48.8c1.82,1.7,3.32,4.52,6.76,2.51A90,90,0,0,0,658.08,273Z" transform="translate(-9.21 -9.45)"/><path class="cls-33" d="M429.47,762c-1,2.75,1,4.37,2.7,5.95q15.54,14.86,31.37,29.47c1.73,1.59,3.56,3.36,6.44,2.4,6.3-4.86,12.42-9.89,17.57-15.87-3-2.58-6.1-5.12-9.07-7.76-12.71-11.32-24.13-23.88-37.65-34.41A115,115,0,0,0,429.47,762Z" transform="translate(-9.21 -9.45)"/><path class="cls-34" d="M416.27,785.43a2.08,2.08,0,0,0,.63,2.74c9.59,8.45,18.6,17.45,28.07,26,1.71,1.54,3.39,3.55,6.35,2.53l18.66-17c-14.51-11.65-27.72-24.54-40.51-37.82A152.45,152.45,0,0,0,416.27,785.43Z" transform="translate(-9.21 -9.45)"/><path class="cls-35" d="M403,808.86c-.93,2.41.79,3.91,2.27,5.35q9.69,9.45,19.75,18.57c1.54,1.4,3.13,3,5.69,2.41,6.73-6.28,14.78-11.26,20.57-18.47l-35.05-31.29A166.52,166.52,0,0,0,403,808.86Z" transform="translate(-9.21 -9.45)"/><path class="cls-36" d="M298.24,555.44c-11,16.57-.37,35.1,20.46,35.55,8.76.19,17.54-.14,26.32-.23-.07-3.59-3.2-5.23-5.42-7.39q-18-17.42-36.06-34.74C301.76,550.89,299.82,553.05,298.24,555.44Z" transform="translate(-9.21 -9.45)"/><path class="cls-37" d="M661.18,266.85C671.32,253,664.34,236,646.9,232.41l-31.68.2c1.47,2.14,2.6,4.58,4.45,6.36,11.08,10.62,22.32,21.07,33.5,31.59,1.38,1.3,2.82,2.44,4.91,2.44C659.09,270.94,659.83,268.7,661.18,266.85Z" transform="translate(-9.21 -9.45)"/><path class="cls-38" d="M389.48,833.17c3.26,9.84,11.2,15.47,20.4,19.93.35.17,1-.33,1.4-.67,7.2-5,14-10.47,19.47-17.24-9.61-8.43-19.18-16.9-27.71-26.33A166,166,0,0,0,389.48,833.17Z" transform="translate(-9.21 -9.45)"/><path class="cls-39" d="M377.29,854.27c-2.41,4.83-1.42,9.88,3.39,13.28s10.64,3.71,15.23-.19c5.45-4.62,11.46-8.86,15.37-14.93-9.37-4.31-15.29-12.08-21.8-19.26C385.38,840.18,380.91,847,377.29,854.27Z" transform="translate(-9.21 -9.45)"/><path class="cls-40" d="M376.66,232.34c14.1,0,28.56,0,42.66,0h0c14,0,25.05.09,39,0,4.64,0,12.13,6.1,13.82,10.13s.39,7.38-2.54,11c-23.52,28.82-45.68,57.61-66.85,87-2.35,2.14-11.9,14.46-28.77.31,12.56,9.88-34-26.67-51.52-41.25-25.87-20.63-30.38-24.4-56-47.36-7.27-10.43,2.93-19.26,7.55-19.78" transform="translate(-9.21 -9.45)"/></svg>